<svg width="142" height="48" viewBox="0 0 142 48" fill="none" xmlns="http://www.w3.org/2000/svg">
<path d="M9.11818 47.9975C8.75128 47.9975 8.39324 47.9926 8.02921 47.9841C7.2751 47.9738 6.52276 47.9054 5.77835 47.7794C5.08422 47.6548 4.4118 47.4231 3.78326 47.0919C3.16048 46.7634 2.59246 46.3327 2.10095 45.8162C1.60233 45.3058 1.18721 44.7139 0.872028 44.0638C0.553377 43.4095 0.332852 42.7082 0.218134 41.9843C0.094248 41.2065 0.0272208 40.4199 0.0176299 39.6315C0.00999508 39.3669 0 38.4857 0 38.4857V9.49828C0 9.49828 0.0106454 8.63068 0.0176901 8.37578C0.0268733 7.5886 0.0935107 6.80329 0.217026 6.02664C0.331955 5.30074 0.552652 4.59741 0.871474 3.94098C1.18549 3.29137 1.59831 2.69898 2.09393 2.18678C2.58899 1.66971 3.15883 1.23677 3.78267 0.903746C4.40976 0.573578 5.08091 0.34349 5.77364 0.22119C6.5205 0.0939071 7.27545 0.0250918 8.03218 0.0153216L9.11877 0H132.875L133.975 0.0159364C134.725 0.0252212 135.473 0.0934226 136.213 0.21996C136.913 0.343794 137.591 0.575487 138.225 0.907422C139.475 1.57857 140.492 2.64038 141.133 3.94404C141.447 4.59594 141.664 5.29354 141.778 6.01316C141.903 6.79618 141.973 7.58767 141.987 8.3813C141.99 8.73667 141.99 9.11839 141.99 9.49828C142 9.96885 142 10.4167 142 10.8683V37.1304C142 37.5862 142 38.0311 141.99 38.4796C141.99 38.8876 141.99 39.2614 141.986 39.6462C141.972 40.4257 141.903 41.203 141.78 41.972C141.668 42.7012 141.448 43.4079 141.13 44.0676C140.812 44.7106 140.4 45.2974 139.907 45.8064C139.415 46.3257 138.846 46.7589 138.221 47.0895C137.589 47.4233 136.912 47.6558 136.213 47.7794C135.468 47.9061 134.716 47.9745 133.962 47.9841C133.609 47.9926 133.24 47.9975 132.881 47.9975L131.576 48L9.11818 47.9975Z" fill="black"/>
<path fill-rule="evenodd" clip-rule="evenodd" d="M87.6143 33.8406C85.6471 33.8406 84.2075 32.8704 84.0418 31.3926L81.7525 31.3925C81.897 34.0879 84.1346 35.7929 87.4486 35.7929C90.9906 35.7929 93.2176 34.0468 93.2176 31.2589C93.2176 29.0793 91.9437 27.8511 88.8776 27.1281L87.2312 26.725C85.3051 26.2504 84.5177 25.6305 84.5177 24.577C84.5177 23.2551 85.7505 22.3469 87.552 22.3469C89.3536 22.3469 90.5863 23.2445 90.7215 24.7316H92.979C92.9062 22.1605 90.7415 20.3945 87.5838 20.3945C84.3932 20.3945 82.1462 22.1605 82.1462 24.7316C82.1462 26.8082 83.4201 28.0879 86.1642 28.7488L88.1009 29.2141C90.0376 29.6887 90.8555 30.3813 90.8555 31.5379C90.8555 32.8703 89.4993 33.8406 87.6143 33.8406ZM48.6522 31.5169H42.9561L41.5882 35.5446H39.1755L44.5708 20.643H47.0775L52.4728 35.5446H50.019L48.6522 31.5169ZM43.546 29.6583H48.0612L45.8354 23.1215H45.7731L43.546 29.6583ZM59.5779 35.6583C62.3126 35.6583 64.1247 33.4891 64.1247 30.113C64.1247 26.7462 62.302 24.5665 59.5368 24.5665C58.1139 24.5207 56.781 25.2587 56.0677 26.4872H56.0265V24.6801H53.8618V39.1387H56.0982V33.7575H56.1499C56.833 34.9937 58.1644 35.732 59.5779 35.6583ZM61.8261 30.113C61.8261 27.9134 60.6861 26.4673 58.9468 26.4673C57.2381 26.4673 56.0888 27.9438 56.0888 30.113C56.0888 32.302 57.2381 33.768 58.9468 33.768C60.6861 33.768 61.8261 32.3325 61.8261 30.113ZM71.5695 35.6583C74.3042 35.6583 76.1163 33.4891 76.1163 30.113C76.1163 26.7462 74.2936 24.5665 71.5283 24.5665C70.1055 24.5207 68.7726 25.2587 68.0592 26.4872H68.0181V24.6801H65.8534V39.1387H68.0898V33.7575H68.1415C68.8245 34.9937 70.156 35.732 71.5695 35.6583ZM73.8176 30.113C73.8176 27.9134 72.6777 26.4673 70.9384 26.4673C69.2297 26.4673 68.0804 27.9438 68.0804 30.113C68.0804 32.302 69.2297 33.768 70.9384 33.768C72.6777 33.768 73.8177 32.3325 73.8176 30.113ZM98.0441 22.109V24.6801H100.116V26.4462H98.0441V32.4356C98.0441 33.3661 98.4589 33.7997 99.3697 33.7997C99.6157 33.7954 99.8612 33.7782 100.105 33.7481V35.5035C99.6959 35.5798 99.2797 35.6144 98.8632 35.6067C96.6574 35.6067 95.7971 34.7805 95.7971 32.6735V26.4462H94.213V24.6801H95.7971V22.109H98.0441ZM106.483 24.5466C103.335 24.5466 101.316 26.6946 101.316 30.113C101.316 33.5407 103.315 35.6794 106.483 35.6794C109.653 35.6794 111.652 33.5407 111.652 30.113C111.652 26.6946 109.642 24.5466 106.483 24.5466ZM109.373 30.113C109.373 27.768 108.295 26.3841 106.483 26.3841C104.671 26.3841 103.595 27.7786 103.595 30.113C103.595 32.4673 104.671 33.8407 106.483 33.8407C108.295 33.8407 109.373 32.4673 109.373 30.113ZM115.628 24.6801H113.495L113.495 35.5446H115.732V29.1004C115.657 28.4485 115.872 27.7967 116.32 27.3161C116.768 26.8355 117.405 26.5742 118.062 26.6008C118.402 26.5909 118.742 26.6365 119.067 26.7356V24.6497C118.816 24.5935 118.559 24.5656 118.301 24.5665C117.071 24.5196 115.978 25.3389 115.68 26.5293H115.628V24.6801ZM129.378 32.3536C129.077 34.3258 127.151 35.6794 124.687 35.6794C121.517 35.6794 119.55 33.5618 119.55 30.1645C119.55 26.7567 121.528 24.5465 124.593 24.5465C127.607 24.5465 129.503 26.6114 129.503 29.9055V30.6696H121.808V30.8044C121.736 31.6132 122.016 32.4138 122.577 33.0026C123.137 33.5914 123.925 33.9116 124.738 33.8817C125.824 33.9831 126.847 33.3617 127.255 32.3536L129.378 32.3536ZM127.265 29.111H121.818C121.816 28.3775 122.108 27.6736 122.629 27.1558C123.15 26.638 123.857 26.3492 124.593 26.3536C125.323 26.3379 126.026 26.6266 126.533 27.15C127.04 27.6735 127.306 28.3842 127.265 29.111Z" fill="white"/>
<path fill-rule="evenodd" clip-rule="evenodd" d="M68.8589 9.07422H69.9284V16.5871H68.8589V9.07422ZM45.7996 10.4085C45.1451 9.71928 44.2152 9.35908 43.2657 9.42702H40.6721V16.5872H43.2657C45.4046 16.5872 46.6444 15.2723 46.6444 12.9848C46.7641 12.0432 46.4541 11.0977 45.7996 10.4085ZM43.1412 15.5746H41.7874V10.4389H43.1412C43.8161 10.4015 44.4724 10.6669 44.9306 11.1624C45.3888 11.6579 45.601 12.3316 45.5092 12.9994C45.6083 13.67 45.3991 14.3494 44.9397 14.8489C44.4803 15.3485 43.8197 15.6151 43.1412 15.5746ZM47.9042 13.883C47.8113 12.9145 48.277 11.9772 49.1061 11.4641C49.9351 10.9511 50.9842 10.9511 51.8132 11.4641C52.6423 11.9772 53.108 12.9145 53.0151 13.883C53.1098 14.8526 52.6445 15.7918 51.8147 16.3059C50.9849 16.82 49.9344 16.82 49.1046 16.3059C48.2748 15.7918 47.8095 14.8526 47.9042 13.883ZM50.4614 12.0268C51.3874 12.0268 51.9151 12.7117 51.9151 13.883H51.9151C51.9151 15.059 51.3875 15.7434 50.4614 15.7434C49.5319 15.7434 49.0089 15.0637 49.0089 13.883C49.0089 12.7117 49.5318 12.0268 50.4614 12.0268ZM59.8088 16.5871H58.6995L57.5795 12.6074H57.4949L56.3797 16.5871H55.2809L53.7872 11.1836H54.8719L55.8426 15.3068H55.9225L57.0366 11.1836H58.0625L59.1766 15.3068H59.2612L60.2272 11.1836H61.2966L59.8088 16.5871ZM63.5824 11.1836H62.5529L62.5529 16.5871H63.6223V13.426C63.5839 13.0664 63.705 12.708 63.9537 12.4448C64.2024 12.1816 64.5539 12.0398 64.9162 12.0567C65.7071 12.0567 66.0855 12.4885 66.0855 13.3569V16.5871H67.1549V13.0891C67.2333 12.5607 67.0665 12.0255 66.7016 11.6345C66.3368 11.2436 65.8134 11.0393 65.2793 11.0793C64.5896 11.0234 63.9402 11.41 63.6623 12.042H63.5824V11.1836ZM72.617 11.464C71.7879 11.9771 71.3221 12.9144 71.415 13.883C71.3204 14.8526 71.7858 15.7918 72.6156 16.3059C73.4454 16.82 74.4959 16.82 75.3258 16.3059C76.1556 15.7918 76.621 14.8526 76.5264 13.883C76.6193 12.9144 76.1535 11.9771 75.3244 11.464C74.4952 10.951 73.4462 10.951 72.617 11.464ZM75.4259 13.883C75.4259 12.7117 74.8982 12.0268 73.9722 12.0268C73.0426 12.0268 72.5197 12.7117 72.5197 13.883C72.5197 15.0637 73.0426 15.7434 73.9722 15.7434C74.8982 15.7434 75.4259 15.059 75.4259 13.883ZM79.6677 13.4459C78.3785 13.5256 77.6523 14.0863 77.6523 15.059C77.6541 15.5202 77.8514 15.9591 78.1956 16.2672C78.5397 16.5753 78.9985 16.7239 79.4585 16.6762C80.1147 16.7064 80.7365 16.3823 81.0862 15.8278H81.1708V16.5871H82.2002V12.8951C82.2002 11.7537 81.434 11.0793 80.0755 11.0793C78.8463 11.0793 77.9707 11.6746 77.8615 12.6028H78.8968C79.0155 12.2207 79.4292 12.0022 80.0261 12.0022C80.7571 12.0022 81.1355 12.3244 81.1355 12.8951V13.3615L79.6677 13.4459ZM81.1355 14.5973V14.1455L79.8123 14.2299C79.066 14.2797 78.7276 14.5328 78.7276 15.0092C78.7276 15.4955 79.1506 15.7785 79.7324 15.7785C80.0768 15.8133 80.4206 15.7072 80.6851 15.4845C80.9496 15.2618 81.1121 14.9417 81.1355 14.5973ZM85.8551 11.094C84.486 11.094 83.6057 12.1756 83.6057 13.883C83.6057 15.5946 84.4766 16.6762 85.8551 16.6762C86.554 16.7018 87.2094 16.3387 87.5567 15.7334H87.6413V16.5871H88.6661V9.07422H87.5967V12.042H87.5168C87.1939 11.4316 86.5464 11.0622 85.8551 11.094ZM84.7105 13.883C84.7105 15.0291 85.2522 15.7188 86.1583 15.7188C87.0596 15.7188 87.6167 15.0192 87.6167 13.8877C87.6167 12.7615 87.0538 12.052 86.1583 12.052C85.2581 12.052 84.7104 12.7463 84.7104 13.883H84.7105ZM94.2925 11.4641C93.4635 11.9772 92.9978 12.9145 93.0907 13.883C92.996 14.8526 93.4613 15.7918 94.2911 16.3059C95.1209 16.82 96.1714 16.82 97.0011 16.3059C97.8309 15.7918 98.2962 14.8526 98.2016 13.883C98.2945 12.9145 97.8287 11.9772 96.9997 11.4641C96.1706 10.9511 95.1216 10.9511 94.2925 11.4641ZM97.1016 13.883C97.1016 12.7117 96.5739 12.0268 95.6479 12.0268C94.7183 12.0268 94.1954 12.7117 94.1954 13.883C94.1954 15.0637 94.7183 15.7434 95.6479 15.7434C96.5739 15.7434 97.1016 15.059 97.1016 13.883ZM100.666 11.1836H99.6365V16.5871H100.706V13.426C100.667 13.0664 100.789 12.708 101.037 12.4448C101.286 12.1816 101.637 12.0398 102 12.0567C102.791 12.0567 103.169 12.4885 103.169 13.3569V16.5871H104.238V13.0891C104.317 12.5607 104.15 12.0255 103.785 11.6345C103.42 11.2436 102.897 11.0393 102.363 11.0793C101.673 11.0234 101.024 11.41 100.746 12.042H100.666V11.1836ZM110.281 9.83829V11.2082H111.455V12.1065H110.281V14.885C110.281 15.451 110.515 15.6988 111.048 15.6988C111.184 15.6984 111.32 15.6902 111.455 15.6742V16.5625C111.263 16.5968 111.069 16.615 110.874 16.617C109.684 16.617 109.211 16.1998 109.211 15.158V12.1064H108.35V11.2082H109.211V9.83829H110.281ZM113.976 9.07422H112.916L112.916 16.5871H113.986V13.4312C113.952 13.0605 114.085 12.694 114.348 12.4299C114.611 12.1658 114.978 12.0309 115.35 12.0613C116.106 12.0613 116.509 12.4984 116.509 13.3615V16.5871H117.579V13.0984C117.65 12.5728 117.482 12.0431 117.121 11.6535C116.76 11.264 116.244 11.0552 115.713 11.084C115.013 11.0273 114.352 11.4144 114.061 12.052H113.976V9.07422ZM123.815 15.1281C123.515 16.1474 122.526 16.8059 121.467 16.6914C120.744 16.7104 120.05 16.4118 119.568 15.8747C119.086 15.3376 118.865 14.6164 118.964 13.9024C118.867 13.1864 119.087 12.464 119.567 11.9224C120.046 11.3807 120.738 11.0732 121.462 11.0793C122.97 11.0793 123.879 12.1065 123.879 13.8033V14.1754H120.053V14.2352C120.019 14.6361 120.156 15.0328 120.431 15.3275C120.706 15.6222 121.093 15.7876 121.496 15.7832C122.019 15.8458 122.529 15.587 122.785 15.1281L123.815 15.1281ZM122.79 13.3867H120.053C120.048 13.0141 120.194 12.6554 120.459 12.3918C120.723 12.1282 121.082 11.9822 121.456 11.9869C121.825 11.9785 122.18 12.1257 122.434 12.3923C122.688 12.6589 122.817 13.02 122.79 13.3867Z" fill="white"/>
<path fill-rule="evenodd" clip-rule="evenodd" d="M25.6065 9.41406C25.723 10.9311 25.2419 12.4338 24.2653 13.6028C23.3179 14.7779 21.8822 15.4548 20.3702 15.4393C20.2741 13.9659 20.7692 12.5148 21.7466 11.4056C22.7363 10.2814 24.1145 9.57033 25.6065 9.41406ZM30.3884 18.3281C28.6491 19.3944 27.5788 21.2748 27.5525 23.3106C27.555 25.6138 28.9382 27.6924 31.0655 28.5896C30.6564 29.9149 30.0397 31.1673 29.2383 32.3006C28.162 33.906 27.0335 35.4745 25.2424 35.5035C24.3906 35.5231 23.8156 35.2789 23.2164 35.0244C22.5914 34.7589 21.9401 34.4822 20.921 34.4822C19.8402 34.4822 19.1598 34.7678 18.5036 35.0432C17.9364 35.2812 17.3874 35.5116 16.6136 35.5436C14.9079 35.6066 13.6043 33.8301 12.4888 32.2396C10.2594 28.9917 8.52343 23.0864 10.8508 19.0683C11.9437 17.11 13.9871 15.8673 16.2335 15.7949C17.2009 15.775 18.1292 16.1469 18.9431 16.4729C19.5655 16.7222 20.121 16.9447 20.5759 16.9447C20.9758 16.9447 21.5157 16.731 22.1451 16.4819C23.1364 16.0895 24.3494 15.6095 25.5855 15.7389C27.5062 15.7988 29.2862 16.7584 30.3884 18.3281Z" fill="white"/>
</svg>
