<svg width="162" height="48" viewBox="0 0 162 48" fill="none" xmlns="http://www.w3.org/2000/svg">
<rect width="162" height="48" rx="5" fill="black"/>
<path fill-rule="evenodd" clip-rule="evenodd" d="M57.2881 27.6726V29.8326H62.4721C62.3908 30.8499 61.9679 31.8099 61.2721 32.5566C60.2233 33.6248 58.7719 34.2001 57.2761 34.1406C54.0949 34.1406 51.5161 31.5617 51.5161 28.3806C51.5161 25.1994 54.0949 22.6206 57.2761 22.6206C58.7374 22.5967 60.1486 23.1534 61.2001 24.1686L62.7241 22.6446C61.29 21.1924 59.3289 20.3829 57.2881 20.4006C54.3828 20.2875 51.6485 21.773 50.1623 24.2718C48.676 26.7707 48.676 29.8824 50.1623 32.3813C51.6485 34.8801 54.3828 36.3656 57.2881 36.2526C59.3662 36.3465 61.3834 35.537 62.8201 34.0326C64.0773 32.6513 64.7485 30.8355 64.6921 28.9686C64.6959 28.5137 64.6558 28.0596 64.5721 27.6126L57.2881 27.6726ZM70.5961 26.1006C67.781 26.1072 65.5037 28.3935 65.5081 31.2085C65.5125 34.0236 67.797 36.3027 70.6121 36.3005C73.4271 36.2983 75.7081 34.0156 75.7081 31.2006C75.7278 29.8378 75.1935 28.5254 74.2276 27.564C73.2616 26.6025 71.9467 26.0744 70.5841 26.1006H70.5961ZM76.6921 31.2165C76.6833 28.403 78.9546 26.1138 81.7681 26.1006C83.1307 26.0744 84.4456 26.6025 85.4116 27.564C86.3775 28.5254 86.9118 29.8378 86.8921 31.2006C86.892 34.0141 84.6135 36.2961 81.8 36.3005C78.9865 36.3049 76.7009 34.03 76.6921 31.2165ZM78.7585 32.5427C79.3065 33.6897 80.4999 34.3852 81.7681 34.2966C82.564 34.2781 83.3188 33.9389 83.861 33.356C84.4033 32.773 84.6871 31.9958 84.6481 31.2006C84.645 29.9293 83.8651 28.7892 82.6815 28.3255C81.4979 27.8617 80.1511 28.1686 79.2852 29.0994C78.4194 30.0302 78.2105 31.3956 78.7585 32.5427ZM67.5785 32.5519C68.1303 33.6982 69.3273 34.3902 70.5961 34.2966H70.5841C71.38 34.2781 72.1348 33.9389 72.677 33.356C73.2193 32.773 73.5031 31.9958 73.4641 31.2006C73.4606 29.9283 72.6792 28.7877 71.4941 28.325C70.309 27.8623 68.9614 28.1717 68.0968 29.105C67.2323 30.0383 67.0266 31.4055 67.5785 32.5519ZM107.292 26.1006C109.282 26.1738 111.019 27.4676 111.66 29.3526L111.912 29.8926L105.084 32.7126C105.512 33.6872 106.492 34.3011 107.556 34.2606C108.583 34.2632 109.536 33.7253 110.064 32.8446L111.804 34.0446C110.857 35.4623 109.261 36.3097 107.556 36.3006C106.201 36.3204 104.896 35.7883 103.941 34.8264C102.985 33.8646 102.463 32.5557 102.492 31.2006C102.409 29.8764 102.878 28.5769 103.787 27.6108C104.697 26.6446 105.965 26.098 107.292 26.1006ZM104.7 31.0566C104.651 30.3068 104.906 29.5687 105.407 29.0089C105.908 28.449 106.613 28.1144 107.364 28.0806C108.155 28.0284 108.901 28.4534 109.26 29.1606L104.7 31.0566ZM101.4 36.0006H99.1561V21.0006H101.4V36.0006ZM95.4841 27.2406H95.4001C94.716 26.4758 93.7381 26.0392 92.7121 26.0406C89.9882 26.1726 87.8477 28.4195 87.8477 31.1466C87.8477 33.8736 89.9882 36.1205 92.7121 36.2526C93.7415 36.2699 94.7257 35.8305 95.4001 35.0526H95.4721V35.7846C95.4721 37.7406 94.4281 38.7846 92.7481 38.7846C91.6036 38.7578 90.5889 38.0418 90.1801 36.9726L88.2241 37.7886C88.9773 39.6207 90.7671 40.8124 92.7481 40.8006C95.3761 40.8006 97.5481 39.2526 97.5481 35.4846V26.4006H95.4841V27.2406ZM92.9123 34.2962L92.9161 34.2966H92.9041L92.9123 34.2962ZM94.9344 33.3339C94.4194 33.9167 93.6892 34.2641 92.9123 34.2962C91.3096 34.1531 90.0809 32.8101 90.0809 31.2006C90.0809 29.5898 91.3115 28.246 92.9161 28.1046C93.6914 28.1443 94.4179 28.4955 94.9307 29.0784C95.4435 29.6612 95.6993 30.4265 95.6401 31.2006C95.7062 31.9782 95.4513 32.7491 94.9344 33.3339ZM122.172 21.0006H116.808V36.0006H119.052V30.3126H122.184C123.927 30.4378 125.594 29.5788 126.504 28.0865C127.414 26.5943 127.414 24.7188 126.504 23.2266C125.594 21.7343 123.927 20.8753 122.184 21.0006H122.172ZM119.04 28.2006H122.172L122.22 28.2366C123.642 28.2366 124.794 27.0841 124.794 25.6626C124.794 24.241 123.642 23.0886 122.22 23.0886H119.04V28.2006ZM136.008 26.0406C134.339 25.9408 132.769 26.8411 132.012 28.3326L134.004 29.1606C134.405 28.421 135.205 27.988 136.044 28.0566C136.619 27.9893 137.198 28.1561 137.649 28.5194C138.1 28.8827 138.387 29.412 138.444 29.9886V30.1446C137.723 29.763 136.92 29.5651 136.104 29.5686C133.956 29.5686 131.784 30.7686 131.784 32.9406C131.827 33.8762 132.246 34.7548 132.947 35.3763C133.648 35.9979 134.57 36.3096 135.504 36.2406C136.655 36.3232 137.76 35.771 138.384 34.8006H138.456V36.0006H140.616V30.2286C140.616 27.6006 138.624 26.0766 136.068 26.0766L136.008 26.0406ZM133.98 32.9886C133.98 33.8886 135 34.2606 135.732 34.2606L135.792 34.2966C137.144 34.2636 138.265 33.2399 138.42 31.8966C137.797 31.549 137.093 31.375 136.38 31.3926C135.252 31.3926 133.98 31.7886 133.98 32.9886ZM148.488 26.4006L145.92 32.9046H145.848L143.184 26.4006H140.784L144.78 35.4966L142.5 40.5486H144.84L150.984 26.4006H148.488ZM130.56 36.0006H128.316V21.0006H130.56V36.0006Z" fill="white"/>
<path fill-rule="evenodd" clip-rule="evenodd" d="M83.052 14.6657C84.5125 16.118 86.8716 16.118 88.3321 14.6657C89.7538 13.1696 89.7538 10.8218 88.3321 9.32572C87.6337 8.62222 86.6833 8.22656 85.6921 8.22656C84.7007 8.22656 83.7504 8.62222 83.052 9.32572C81.6364 10.8242 81.6364 13.1672 83.052 14.6657ZM56.0041 14.6897C56.62 14.0467 56.9453 13.1792 56.9041 12.2897C56.9041 12.1087 56.8881 11.9279 56.8561 11.7497H53.3641V12.6137H55.9681C55.9503 13.1579 55.7373 13.6776 55.3681 14.0777C54.5456 14.8728 53.3255 15.0949 52.2756 14.6408C51.2256 14.1867 50.552 13.1456 50.5681 12.0017C50.5419 11.2448 50.8253 10.5099 51.3529 9.96645C51.8805 9.42303 52.6067 9.11801 53.3641 9.12172C54.1175 9.08055 54.8465 9.39613 55.3321 9.97372L55.9681 9.33772C55.6608 8.98439 55.2743 8.70887 54.8401 8.53372C54.3737 8.33412 53.8714 8.23203 53.3641 8.23372C52.3687 8.21154 51.4087 8.60251 50.7121 9.31372C49.6399 10.3929 49.3191 12.0097 49.8981 13.4164C50.477 14.8232 51.8429 15.7458 53.3641 15.7577C54.3558 15.793 55.3158 15.4047 56.0041 14.6897ZM59.1601 9.28972H62.4001V8.40172H58.2001V15.6017H62.4001V14.7137H59.1601V12.4337H62.1121V11.5697H59.1601V9.28972ZM66.3361 15.6017H65.4121V9.28972H63.3961V8.40172H68.4001V9.28972H66.3361V15.6017ZM72.8521 8.40172H71.9281V15.6017H72.8521V8.40172ZM76.9561 15.6017H76.0321V9.28972H74.0161V8.40172H78.9601V9.28972H76.9561V15.6017ZM83.736 14.0657C84.8176 15.1428 86.5665 15.1428 87.6481 14.0657C88.7103 12.8947 88.7103 11.1087 87.6481 9.93772C86.5665 8.86064 84.8176 8.86064 83.736 9.93772C82.6738 11.1087 82.6738 12.8947 83.736 14.0657ZM91.824 8.40172H90.696V15.6017H91.632V9.73372L95.292 15.6017H96.252V8.40172H95.328V14.0057L91.824 8.40172Z" fill="white"/>
<path d="M88.3321 14.6657L88.4026 14.7367L88.4045 14.7346L88.3321 14.6657ZM83.052 14.6657L82.9793 14.7344L82.9815 14.7366L83.052 14.6657ZM88.3321 9.32572L88.4046 9.25682L88.403 9.25527L88.3321 9.32572ZM83.052 9.32572L82.9811 9.25525L82.9794 9.25705L83.052 9.32572ZM56.9041 12.2897L56.8039 12.2897L56.8042 12.2944L56.9041 12.2897ZM56.0041 14.6897L56.0761 14.7591L56.0763 14.7589L56.0041 14.6897ZM56.8561 11.7497L56.9545 11.732L56.9397 11.6497H56.8561V11.7497ZM53.3641 11.7497V11.6497H53.2641V11.7497H53.3641ZM53.3641 12.6137H53.2641V12.7137H53.3641V12.6137ZM55.9681 12.6137L56.068 12.617L56.0714 12.5137H55.9681V12.6137ZM55.3681 14.0777L55.4377 14.1497L55.4415 14.1455L55.3681 14.0777ZM52.2756 14.6408L52.2359 14.7326H52.2359L52.2756 14.6408ZM50.5681 12.0017L50.6682 12.0031L50.668 11.9983L50.5681 12.0017ZM51.3529 9.96645L51.4246 10.0361L51.3529 9.96645ZM53.3641 9.12172L53.3636 9.2219L53.3695 9.22157L53.3641 9.12172ZM55.3321 9.97372L55.2555 10.0381L55.3257 10.1215L55.4028 10.0444L55.3321 9.97372ZM55.9681 9.33772L56.0388 9.40843L56.1047 9.34249L56.0435 9.27211L55.9681 9.33772ZM54.8401 8.53372L54.8007 8.62568L54.8026 8.62646L54.8401 8.53372ZM53.3641 8.23372L53.3618 8.33373L53.3644 8.33372L53.3641 8.23372ZM50.7121 9.31372L50.783 9.3842L50.7835 9.3837L50.7121 9.31372ZM49.8981 13.4164L49.8056 13.4545L49.8981 13.4164ZM53.3641 15.7577L53.3676 15.6577L53.3648 15.6577L53.3641 15.7577ZM62.4001 9.28972V9.38972H62.5001V9.28972H62.4001ZM59.1601 9.28972V9.18972H59.0601V9.28972H59.1601ZM62.4001 8.40172H62.5001V8.30172H62.4001V8.40172ZM58.2001 8.40172V8.30172H58.1V8.40172H58.2001ZM58.2001 15.6017H58.1V15.7017H58.2001V15.6017ZM62.4001 15.6017V15.7017H62.5001V15.6017H62.4001ZM62.4001 14.7137H62.5001V14.6137H62.4001V14.7137ZM59.1601 14.7137H59.0601V14.8137H59.1601V14.7137ZM59.1601 12.4337V12.3337H59.0601V12.4337H59.1601ZM62.1121 12.4337V12.5337H62.2121V12.4337H62.1121ZM62.1121 11.5697H62.2121V11.4697H62.1121V11.5697ZM59.1601 11.5697H59.0601V11.6697H59.1601V11.5697ZM65.4121 15.6017H65.312V15.7017H65.4121V15.6017ZM66.3361 15.6017V15.7017H66.4361V15.6017H66.3361ZM65.4121 9.28972H65.5121V9.18972H65.4121V9.28972ZM63.3961 9.28972H63.2961V9.38972H63.3961V9.28972ZM63.3961 8.40172V8.30172H63.2961V8.40172H63.3961ZM68.4001 8.40172H68.5001V8.30172H68.4001V8.40172ZM68.4001 9.28972V9.38972H68.5001V9.28972H68.4001ZM66.3361 9.28972V9.18972H66.236V9.28972H66.3361ZM71.9281 8.40172V8.30172H71.8281V8.40172H71.9281ZM72.8521 8.40172H72.9521V8.30172H72.8521V8.40172ZM71.9281 15.6017H71.8281V15.7017H71.9281V15.6017ZM72.8521 15.6017V15.7017H72.9521V15.6017H72.8521ZM76.0321 15.6017H75.9321V15.7017H76.0321V15.6017ZM76.9561 15.6017V15.7017H77.0561V15.6017H76.9561ZM76.0321 9.28972H76.1321V9.18972H76.0321V9.28972ZM74.0161 9.28972H73.916V9.38972H74.0161V9.28972ZM74.0161 8.40172V8.30172H73.916V8.40172H74.0161ZM78.9601 8.40172H79.0601V8.30172H78.9601V8.40172ZM78.9601 9.28972V9.38972H79.0601V9.28972H78.9601ZM76.9561 9.28972V9.18972H76.8561V9.28972H76.9561ZM87.6481 14.0657L87.7187 14.1367L87.7221 14.1329L87.6481 14.0657ZM83.736 14.0657L83.6619 14.133L83.6655 14.1366L83.736 14.0657ZM87.6481 9.93772L87.7222 9.87045L87.7186 9.86686L87.6481 9.93772ZM83.736 9.93772L83.6654 9.86677L83.662 9.87054L83.736 9.93772ZM90.696 8.40172V8.30172H90.5961V8.40172H90.696ZM91.824 8.40172L91.9088 8.34871L91.8795 8.30172H91.824V8.40172ZM90.696 15.6017H90.5961V15.7017H90.696V15.6017ZM91.632 15.6017V15.7017H91.732V15.6017H91.632ZM91.632 9.73372L91.7169 9.6808L91.5321 9.38444V9.73372H91.632ZM95.292 15.6017L95.2072 15.6546L95.2366 15.7017H95.292V15.6017ZM96.252 15.6017V15.7017H96.352V15.6017H96.252ZM96.252 8.40172H96.352V8.30172H96.252V8.40172ZM95.328 8.40172V8.30172H95.2281V8.40172H95.328ZM95.328 14.0057L95.2433 14.0587L95.428 14.3543V14.0057H95.328ZM88.2615 14.5948C86.8401 16.0083 84.544 16.0083 83.1226 14.5948L82.9815 14.7366C84.481 16.2277 86.9031 16.2277 88.4026 14.7366L88.2615 14.5948ZM88.2596 9.39461C89.6446 10.8521 89.6446 13.1393 88.2596 14.5968L88.4045 14.7346C89.8629 13.1999 89.8629 10.7915 88.4045 9.25684L88.2596 9.39461ZM85.6921 8.32656C86.6567 8.32656 87.5815 8.71158 88.2611 9.39618L88.403 9.25527C87.6858 8.53285 86.71 8.12656 85.6921 8.12656V8.32656ZM83.123 9.39618C83.8026 8.71158 84.7274 8.32656 85.6921 8.32656V8.12656C84.6741 8.12656 83.6983 8.53285 82.9811 9.25527L83.123 9.39618ZM83.1247 14.5971C81.7455 13.1371 81.7455 10.8544 83.1247 9.3944L82.9794 9.25705C81.5273 10.7941 81.5273 13.1973 82.9794 14.7344L83.1247 14.5971ZM56.8042 12.2944C56.8441 13.1565 56.5288 13.9973 55.9318 14.6206L56.0763 14.7589C56.7111 14.0961 57.0464 13.2019 57.0039 12.2851L56.8042 12.2944ZM56.7576 11.7674C56.7886 11.9398 56.8041 12.1146 56.8041 12.2897L57.0041 12.2898C57.0041 12.1028 56.9875 11.9161 56.9545 11.732L56.7576 11.7674ZM53.3641 11.8497H56.8561V11.6497H53.3641V11.8497ZM53.4641 12.6137V11.7497H53.2641V12.6137H53.4641ZM55.9681 12.5137H53.3641V12.7137H55.9681V12.5137ZM55.4415 14.1455C55.8271 13.7277 56.0494 13.1852 56.068 12.617L55.8681 12.6105C55.8511 13.1307 55.6475 13.6274 55.2946 14.0099L55.4415 14.1455ZM52.2359 14.7326C53.3229 15.2028 54.586 14.9728 55.4376 14.1496L55.2985 14.0058C54.5051 14.7728 53.3281 14.9871 52.3153 14.549L52.2359 14.7326ZM50.4681 12.0003C50.4514 13.1845 51.1489 14.2625 52.2359 14.7326L52.3153 14.549C51.3024 14.111 50.6525 13.1066 50.668 12.0031L50.4681 12.0003ZM51.2811 9.89679C50.7346 10.4597 50.441 11.221 50.4681 12.0052L50.668 11.9983C50.6428 11.2685 50.916 10.56 51.4246 10.0361L51.2811 9.89679ZM53.3645 9.02172C52.58 9.01788 51.8277 9.33385 51.2811 9.89679L51.4246 10.0361C51.9333 9.5122 52.6334 9.21814 53.3636 9.22172L53.3645 9.02172ZM55.4086 9.90937C54.9028 9.30772 54.1435 8.97898 53.3586 9.02187L53.3695 9.22157C54.0916 9.18212 54.7902 9.48455 55.2555 10.0381L55.4086 9.90937ZM55.8973 9.26701L55.2613 9.90301L55.4028 10.0444L56.0388 9.40843L55.8973 9.26701ZM54.8026 8.62646C55.2222 8.7957 55.5957 9.06193 55.8926 9.40334L56.0435 9.27211C55.7259 8.90686 55.3263 8.62204 54.8775 8.44098L54.8026 8.62646ZM53.3644 8.33372C53.8581 8.33208 54.3468 8.43143 54.8007 8.62566L54.8794 8.44179C54.4005 8.23682 53.8847 8.13199 53.3637 8.13372L53.3644 8.33372ZM50.7835 9.3837C51.4608 8.69225 52.3942 8.31213 53.3618 8.3337L53.3663 8.13375C52.3433 8.11095 51.3566 8.51278 50.6406 9.24375L50.7835 9.3837ZM49.9906 13.3784C49.4269 12.0088 49.7392 10.4348 50.783 9.3842L50.6411 9.24324C49.5406 10.351 49.2113 12.0105 49.8056 13.4545L49.9906 13.3784ZM53.3648 15.6577C51.8839 15.6461 50.5542 14.7479 49.9906 13.3784L49.8056 13.4545C50.3999 14.8985 51.8018 15.8455 53.3633 15.8577L53.3648 15.6577ZM55.932 14.6204C55.2635 15.3149 54.331 15.6921 53.3676 15.6578L53.3605 15.8577C54.3807 15.894 55.3681 15.4945 56.0761 14.7591L55.932 14.6204ZM62.4001 9.18972H59.1601V9.38972H62.4001V9.18972ZM62.3 8.40172V9.28972H62.5001V8.40172H62.3ZM58.2001 8.50172H62.4001V8.30172H58.2001V8.50172ZM58.3001 15.6017V8.40172H58.1V15.6017H58.3001ZM62.4001 15.5017H58.2001V15.7017H62.4001V15.5017ZM62.3 14.7137V15.6017H62.5001V14.7137H62.3ZM59.1601 14.8137H62.4001V14.6137H59.1601V14.8137ZM59.0601 12.4337V14.7137H59.2601V12.4337H59.0601ZM62.1121 12.3337H59.1601V12.5337H62.1121V12.3337ZM62.012 11.5697V12.4337H62.2121V11.5697H62.012ZM59.1601 11.6697H62.1121V11.4697H59.1601V11.6697ZM59.0601 9.28972V11.5697H59.2601V9.28972H59.0601ZM65.4121 15.7017H66.3361V15.5017H65.4121V15.7017ZM65.312 9.28972V15.6017H65.5121V9.28972H65.312ZM63.3961 9.38972H65.4121V9.18972H63.3961V9.38972ZM63.2961 8.40172V9.28972H63.4961V8.40172H63.2961ZM68.4001 8.30172H63.3961V8.50172H68.4001V8.30172ZM68.5001 9.28972V8.40172H68.3001V9.28972H68.5001ZM66.3361 9.38972H68.4001V9.18972H66.3361V9.38972ZM66.4361 15.6017V9.28972H66.236V15.6017H66.4361ZM71.9281 8.50172H72.8521V8.30172H71.9281V8.50172ZM72.0281 15.6017V8.40172H71.8281V15.6017H72.0281ZM72.8521 15.5017H71.9281V15.7017H72.8521V15.5017ZM72.7521 8.40172V15.6017H72.9521V8.40172H72.7521ZM76.0321 15.7017H76.9561V15.5017H76.0321V15.7017ZM75.9321 9.28972V15.6017H76.1321V9.28972H75.9321ZM74.0161 9.38972H76.0321V9.18972H74.0161V9.38972ZM73.916 8.40172V9.28972H74.1161V8.40172H73.916ZM78.9601 8.30172H74.0161V8.50172H78.9601V8.30172ZM79.0601 9.28972V8.40172H78.8601V9.28972H79.0601ZM76.9561 9.38972H78.9601V9.18972H76.9561V9.38972ZM77.0561 15.6017V9.28972H76.8561V15.6017H77.0561ZM87.5775 13.9949C86.5349 15.0331 84.8492 15.0331 83.8066 13.9949L83.6655 14.1366C84.7861 15.2525 86.598 15.2525 87.7186 14.1366L87.5775 13.9949ZM87.574 10.0049C88.6016 11.1378 88.6016 12.8657 87.574 13.9985L87.7221 14.1329C88.8189 12.9238 88.8189 11.0796 87.7221 9.87054L87.574 10.0049ZM83.8066 10.0086C84.8492 8.97036 86.5349 8.97036 87.5775 10.0086L87.7186 9.86686C86.598 8.75093 84.7861 8.75093 83.6655 9.86686L83.8066 10.0086ZM83.8101 13.9985C82.7825 12.8657 82.7825 11.1378 83.8101 10.0049L83.662 9.87054C82.5652 11.0796 82.5652 12.9238 83.662 14.1329L83.8101 13.9985ZM90.696 8.50172H91.824V8.30172H90.696V8.50172ZM90.796 15.6017V8.40172H90.5961V15.6017H90.796ZM91.632 15.5017H90.696V15.7017H91.632V15.5017ZM91.5321 9.73372V15.6017H91.732V9.73372H91.5321ZM95.3769 15.5488L91.7169 9.6808L91.5472 9.78664L95.2072 15.6546L95.3769 15.5488ZM96.252 15.5017H95.292V15.7017H96.252V15.5017ZM96.1521 8.40172V15.6017H96.352V8.40172H96.1521ZM95.328 8.50172H96.252V8.30172H95.328V8.50172ZM95.428 14.0057V8.40172H95.2281V14.0057H95.428ZM91.7393 8.45474L95.2433 14.0587L95.4128 13.9527L91.9088 8.34871L91.7393 8.45474Z" fill="white"/>
<path d="M12.5282 9.04884C12.1371 9.51817 11.9397 10.119 11.9762 10.7288V37.2728C11.9397 37.8827 12.1371 38.4835 12.5282 38.9528L12.6122 39.0368L27.4802 24.1808V23.8328L12.6122 8.96484L12.5282 9.04884Z" fill="url(#paint0_linear)"/>
<path d="M32.4002 29.1392L27.4802 24.1832V23.8352L32.4002 18.8672L32.5082 18.9272L38.4002 22.2752C40.0802 23.2232 40.0802 24.7832 38.4002 25.7432L32.5322 29.0792L32.4002 29.1392Z" fill="url(#paint1_linear)"/>
<path d="M32.5441 29.064L27.4801 24L12.5281 38.952C13.2345 39.573 14.283 39.6033 15.0241 39.024L32.5561 29.064" fill="url(#paint2_linear)"/>
<path d="M32.5441 18.9374L15.0121 8.97743C14.271 8.39816 13.2226 8.4284 12.5161 9.04943L27.4801 24.0014L32.5441 18.9374Z" fill="url(#paint3_linear)"/>
<path opacity="0.2" d="M32.4001 28.957L15.0121 38.857C14.3005 39.389 13.3236 39.389 12.6121 38.857L12.5281 38.941L12.6121 39.025C13.3223 39.561 14.3019 39.561 15.0121 39.025L32.5441 29.065L32.4001 28.957Z" fill="black"/>
<path opacity="0.12" fill-rule="evenodd" clip-rule="evenodd" d="M32.4002 28.956L38.4002 25.56C39.0203 25.254 39.4635 24.6778 39.6002 24C39.5384 24.7493 39.0807 25.4083 38.4002 25.728L32.5082 29.064L32.4002 28.956ZM11.9736 37.3376C11.9934 37.8656 12.1872 38.3748 12.5282 38.784L12.6122 38.88L12.5282 38.964C12.1486 38.5084 11.9514 37.929 11.9736 37.3376ZM11.9736 37.3376C11.9743 37.3197 11.9752 37.3019 11.9762 37.284V37.104C11.9715 37.1821 11.9707 37.2601 11.9736 37.3376Z" fill="black"/>
<path opacity="0.25" d="M15.0121 9.14685L38.4001 22.4429C39.0202 22.7489 39.4633 23.325 39.6001 24.0029C39.5383 23.2536 39.0806 22.5945 38.4001 22.2749L15.0121 8.97885C13.3321 8.03085 11.9641 8.82285 11.9641 10.7429V10.9229C12.0001 8.99085 13.3441 8.19885 15.0121 9.14685Z" fill="white"/>
<defs>
<linearGradient id="paint0_linear" x1="20.9681" y1="-9.06992" x2="-2.83921" y2="-2.73832" gradientUnits="userSpaceOnUse">
<stop stop-color="#00A0FF"/>
<stop offset="0.01" stop-color="#00A1FF"/>
<stop offset="0.26" stop-color="#00BEFF"/>
<stop offset="0.51" stop-color="#00D2FF"/>
<stop offset="0.76" stop-color="#00DFFF"/>
<stop offset="1" stop-color="#00E3FF"/>
</linearGradient>
<linearGradient id="paint1_linear" x1="40.5962" y1="11.7628" x2="11.5682" y2="11.7628" gradientUnits="userSpaceOnUse">
<stop stop-color="#FFE000"/>
<stop offset="0.41" stop-color="#FFBD00"/>
<stop offset="0.78" stop-color="#FFA500"/>
<stop offset="1" stop-color="#FF9C00"/>
</linearGradient>
<linearGradient id="paint2_linear" x1="12.0887" y1="16.233" x2="-7.03499" y2="48.4009" gradientUnits="userSpaceOnUse">
<stop stop-color="#FF3A44"/>
<stop offset="1" stop-color="#C31162"/>
</linearGradient>
<linearGradient id="paint3_linear" x1="0.852136" y1="4.91663" x2="9.38808" y2="19.2812" gradientUnits="userSpaceOnUse">
<stop stop-color="#32A071"/>
<stop offset="0.07" stop-color="#2DA771"/>
<stop offset="0.48" stop-color="#15CF74"/>
<stop offset="0.8" stop-color="#06E775"/>
<stop offset="1" stop-color="#00F076"/>
</linearGradient>
</defs>
</svg>
