<svg width="76" height="24" viewBox="0 0 76 24" fill="none" xmlns="http://www.w3.org/2000/svg">
<path fill-rule="evenodd" clip-rule="evenodd" d="M3.42482 6.99857V18H0V1H3.52409L8.51241 9.03857L13.4759 1H17V18H13.6V6.97429L8.71095 14.8671H8.31387L3.42482 6.99857ZM28.8654 16.2027C27.9259 17.4009 26.6056 18 24.9047 18C23.2847 18 21.8956 17.3722 20.7374 16.1165C19.5791 14.8608 19 13.322 19 11.5C19 9.67803 19.5791 8.1392 20.7374 6.88352C21.8956 5.62784 23.2847 5 24.9047 5C26.6056 5 27.9259 5.59912 28.8654 6.79735V5.3447H32V17.6553H28.8654V16.2027ZM25.4874 15C24.4765 15 23.6426 14.6773 22.9856 14.0319C22.3285 13.37 22 12.526 22 11.5C22 10.474 22.3285 9.63416 22.9856 8.9805C23.6426 8.32683 24.4765 8 25.4874 8C26.4982 8 27.3363 8.32683 28.0018 8.9805C28.6673 9.63416 29 10.474 29 11.5C29 12.526 28.6673 13.3658 28.0018 14.0195C27.3363 14.6732 26.4982 15 25.4874 15ZM38.0385 11.1712V18H35V5.35409H38.0385V6.77043C38.7766 5.59014 39.9465 5 41.5482 5C42.8358 5 43.8997 5.46368 44.7398 6.39105C45.5799 7.31842 46 8.59987 46 10.2354V18H42.9615V10.6401C42.9615 9.79702 42.7495 9.15207 42.3255 8.70525C41.9015 8.25843 41.3362 8.03502 40.6296 8.03502C39.8444 8.03502 39.2163 8.29637 38.7452 8.81907C38.2741 9.34176 38.0385 10.1258 38.0385 11.1712ZM54.6579 23C56.4075 23 57.9019 22.4973 59.1411 21.4918C60.3804 20.4863 61 19.0275 61 17.1154V5.34615H57.9383V6.87912C57.015 5.62637 55.719 5 54.0505 5C52.3495 5 50.9159 5.61813 49.7495 6.8544C48.5832 8.09066 48 9.58242 48 11.3297C48 13.0934 48.5791 14.5893 49.7374 15.8173C50.8956 17.0453 52.3333 17.6593 54.0505 17.6593C55.719 17.6593 57.015 17.033 57.9383 15.7802V17.1154C57.9383 18.0879 57.6548 18.8379 57.0879 19.3654C56.5209 19.8929 55.7433 20.1566 54.7551 20.1566C53.2486 20.1566 52.1875 19.5797 51.572 18.4258L48.8991 19.9835C49.4336 20.9725 50.1991 21.7225 51.1953 22.2335C52.1916 22.7445 53.3458 23 54.6579 23ZM51.975 14.0256C52.6417 14.6752 53.4833 15 54.5 15C55.5167 15 56.3542 14.6709 57.0125 14.0128C57.6708 13.3547 58 12.5128 58 11.4872C58 10.4786 57.6708 9.6453 57.0125 8.98718C56.3542 8.32906 55.5167 8 54.5 8C53.4833 8 52.6458 8.32906 51.9875 8.98718C51.3292 9.6453 51 10.4786 51 11.4872C51 12.5128 51.325 13.359 51.975 14.0256ZM68.9047 18C70.6056 18 71.9259 17.4009 72.8654 16.2027V17.6553H76V5.3447H72.8654V6.79735C71.9259 5.59912 70.6056 5 68.9047 5C67.2847 5 65.8956 5.62784 64.7374 6.88352C63.5791 8.1392 63 9.67803 63 11.5C63 13.322 63.5791 14.8608 64.7374 16.1165C65.8956 17.3722 67.2847 18 68.9047 18ZM66.9856 14.0319C67.6426 14.6773 68.4765 15 69.4874 15C70.4982 15 71.3363 14.6732 72.0018 14.0195C72.6673 13.3658 73 12.526 73 11.5C73 10.474 72.6673 9.63416 72.0018 8.9805C71.3363 8.32683 70.4982 8 69.4874 8C68.4765 8 67.6426 8.32683 66.9856 8.9805C66.3285 9.63416 66 10.474 66 11.5C66 12.526 66.3285 13.37 66.9856 14.0319Z" fill="url(#paint0_linear)"/>
<defs>
<linearGradient id="paint0_linear" x1="38" y1="-10" x2="26.2479" y2="30.5981" gradientUnits="userSpaceOnUse">
<stop stop-color="#9349CC"/>
<stop offset="1" stop-color="#6B43BA"/>
</linearGradient>
</defs>
</svg>
