<svg width="16" height="16" viewBox="0 0 16 16" fill="none" xmlns="http://www.w3.org/2000/svg">
<path d="M7.378 4.0664L8.02886 4.94195L8.66824 4.05798C9.24089 3.26628 10.1438 2.8 11.1289 2.8C12.7988 2.8 14.2 4.19978 14.2 5.95247C14.2 7.43145 13.1929 9.25361 11.7801 10.7674C11.0897 11.5072 10.3401 12.1314 9.64402 12.5648C8.9245 13.0128 8.35347 13.2 8 13.2C7.64653 13.2 7.0755 13.0128 6.35599 12.5648C5.65985 12.1314 4.91026 11.5072 4.21989 10.7674C2.80712 9.25361 1.8 7.43145 1.8 5.95247C1.8 4.20249 3.19857 2.8 4.89114 2.8C5.85667 2.8 6.78385 3.26715 7.378 4.0664Z" stroke="#939393" stroke-width="1.6"/>
</svg>
