<svg width="64" height="64" viewBox="0 0 64 64" fill="none" xmlns="http://www.w3.org/2000/svg">
<rect width="64" height="64" rx="3" transform="matrix(1 0 0 -1 0 64)" fill="black" fill-opacity="0.297449"/>
<path fill-rule="evenodd" clip-rule="evenodd" d="M36.7222 30.375H35.8889V29.2917C35.8889 27.2009 34.1444 25.5 32 25.5C29.8556 25.5 28.1111 27.2009 28.1111 29.2917V30.375H27.2778C27.1242 30.375 27 30.4961 27 30.6458V37.4167C27 38.0141 27.4983 38.5 28.1111 38.5H35.8889C36.5017 38.5 37 38.0142 37 37.4167V30.6458C37 30.4961 36.8758 30.375 36.7222 30.375ZM32.8317 36.0326C32.8404 36.109 32.8152 36.1857 32.7626 36.2432C32.7099 36.3005 32.6345 36.3333 32.5556 36.3333H31.4445C31.3655 36.3333 31.2901 36.3005 31.2375 36.2432C31.1848 36.1858 31.1596 36.1091 31.1683 36.0326L31.3435 34.4962C31.059 34.2944 30.8889 33.9752 30.8889 33.625C30.8889 33.0275 31.3872 32.5417 32 32.5417C32.6128 32.5417 33.1111 33.0275 33.1111 33.625C33.1111 33.9752 32.9411 34.2944 32.6565 34.4962L32.8317 36.0326ZM29.7778 29.2917V30.375H34.2222V29.2917C34.2222 28.097 33.2253 27.125 32 27.125C30.7747 27.125 29.7778 28.097 29.7778 29.2917Z" fill="white"/>
<rect x="15" y="15" width="34" height="34" rx="17" stroke="#D8D8D8" stroke-width="2"/>
</svg>
