<svg width="64" height="64" viewBox="0 0 64 64" fill="none" xmlns="http://www.w3.org/2000/svg">
<path fill-rule="evenodd" clip-rule="evenodd" d="M32 0C49.6731 0 64 14.3269 64 32C64 49.6731 49.6731 64 32 64C14.3269 64 0 49.6731 0 32C0 14.3269 14.3269 0 32 0ZM32 6C17.6406 6 6 17.6406 6 32C6 46.3594 17.6406 58 32 58C46.3594 58 58 46.3594 58 32C58 17.6406 46.3594 6 32 6ZM35.1974 37.07C35.1023 36.6853 34.7427 36.4138 34.3295 36.4138H29.671L29.5489 36.4218C29.1886 36.4693 28.8888 36.7243 28.8032 37.07C28.7081 37.454 28.9025 37.8511 29.2722 38.0283L31.1203 38.9123L31.1118 38.9722L31.1078 39.0333V39.8599L31.1007 40.0013C31.026 40.7459 30.3677 41.3302 29.5688 41.3302H28.7027L28.5546 41.3234C27.7744 41.252 27.1626 40.6229 27.1626 39.8599C27.1626 39.3895 26.7631 39.0078 26.2709 39.0078C25.7788 39.0078 25.3793 39.3895 25.3793 39.8599C25.3793 41.6102 26.8701 43.0345 28.7027 43.0345H29.5688L29.8068 43.0264C30.6716 42.9673 31.4437 42.5888 32 42.0164C32.6069 42.6408 33.4712 43.0345 34.4318 43.0345H35.2973L35.4923 43.0291C37.2345 42.9323 38.6207 41.5477 38.6207 39.8599C38.6207 39.3895 38.2218 39.0078 37.7291 39.0078C37.2369 39.0078 36.8374 39.3895 36.8374 39.8599C36.8374 40.6706 36.1467 41.3302 35.2973 41.3302H34.4318L34.2837 41.3234C33.5041 41.252 32.8922 40.6229 32.8922 39.8599V39.0333L32.8882 38.9722L32.8797 38.9123L34.7284 38.0283L34.834 37.9688C35.1341 37.7719 35.283 37.4161 35.1974 37.07ZM18.7579 23.1724C22.4086 23.1724 25.3793 26.1424 25.3793 29.7938C25.3793 33.4445 22.4093 36.4138 18.7579 36.4138C15.1073 36.4138 12.1379 33.4445 12.1379 29.7938C12.1379 28.6298 12.4454 27.5381 12.9756 26.5874L13.1256 26.3317C13.1873 26.2249 13.2511 26.1209 13.3239 26.0218C14.5209 24.3022 16.5088 23.1724 18.7579 23.1724ZM51.8621 29.7938C51.8614 26.1424 48.8919 23.1724 45.2417 23.1724C42.9938 23.1724 41.0065 24.3015 39.8095 26.0198C39.7353 26.1203 39.6701 26.2263 39.6071 26.3351L39.4572 26.5907C38.9276 27.5406 38.6207 28.6311 38.6207 29.7938C38.6207 33.4445 41.5909 36.4138 45.2417 36.4138C48.8926 36.4138 51.8621 33.4445 51.8621 29.7938ZM16.568 26.4828C15.9496 26.4828 15.4483 26.9878 15.4483 27.6108C15.4483 28.2338 15.9496 28.7388 16.568 28.7388C17.1864 28.7388 17.6877 28.2338 17.6877 27.6108C17.6877 26.9878 17.1864 26.4828 16.568 26.4828ZM41.931 27.6108C41.931 26.9878 42.4324 26.4828 43.0508 26.4828C43.6692 26.4828 44.1705 26.9878 44.1705 27.6108C44.1705 28.2338 43.6692 28.7388 43.0508 28.7388C42.4324 28.7388 41.931 28.2338 41.931 27.6108ZM3.99697 2.24848C6.13824 2.22347 8.24336 2.85404 10.0218 4.05011L10.3514 4.28097L9.92502 4.62011C7.12802 6.87999 4.68298 9.55819 2.68432 12.5594C1.32134 9.0491 1.90495 5.16495 3.99697 2.24848ZM61.4499 11.9432C62.523 8.6008 61.8907 4.99541 59.9203 2.24848C57.7054 2.22261 55.529 2.89818 53.7121 4.17533L54.2378 4.58957C56.9172 6.74844 59.2748 9.29075 61.2271 12.1332L61.3328 12.288L61.4499 11.9432Z" fill="url(#paint0_linear)"/>
<defs>
<linearGradient id="paint0_linear" x1="32" y1="-32" x2="-32" y2="32" gradientUnits="userSpaceOnUse">
<stop stop-color="#5ED126"/>
<stop offset="1" stop-color="#8ABA43"/>
</linearGradient>
</defs>
</svg>
