<svg width="16" height="16" viewBox="0 0 16 16" fill="none" xmlns="http://www.w3.org/2000/svg">
<path d="M7.99994 2.8C9.5394 2.8 11.0312 3.91551 12.2401 5.26452C13.3718 6.5274 14.1013 7.82175 14.1995 8.00008C14.1006 8.17954 13.3712 9.47322 12.2401 10.7355C11.0312 12.0845 9.5394 13.2 7.99994 13.2C6.46047 13.2 4.96867 12.0845 3.75976 10.7355C2.62735 9.47185 1.8977 8.17673 1.80033 7.9999C1.89839 7.82193 2.6279 6.5275 3.75975 5.2645C4.96867 3.91552 6.46047 2.8 7.99994 2.8Z" stroke="#939393" stroke-width="1.6"/>
<path d="M5.8 8C5.8 6.78766 6.78766 5.8 8 5.8C9.21234 5.8 10.2 6.78766 10.2 8C10.2 9.21234 9.21234 10.2 8 10.2C6.78766 10.2 5.8 9.21234 5.8 8Z" stroke="#939393" stroke-width="1.6"/>
</svg>
