<svg width="48" height="48" viewBox="0 0 48 48" fill="none" xmlns="http://www.w3.org/2000/svg">
<path d="M1 24C1 11.2975 11.2975 1 24 1C36.7025 1 47 11.2975 47 24C47 36.7025 36.7025 47 24 47C11.2975 47 1 36.7025 1 24Z" stroke="#E8E8E8" stroke-width="2"/>
<path d="M24 17.0432C26.1304 17.0432 27.5675 17.9634 28.3869 18.7324L31.5889 15.6061C29.6223 13.7782 27.0633 12.6562 24 12.6562C19.5627 12.6562 15.7304 15.2027 13.8647 18.9089L17.5331 21.7578C18.4533 19.0223 20.9998 17.0432 24 17.0432Z" fill="#EA4335"/>
<path d="M34.8916 24.2531C34.8916 23.3203 34.816 22.6395 34.6521 21.9336H24V26.144H30.2526C30.1265 27.1903 29.4458 28.7661 27.9331 29.825L31.5132 32.5983C33.6562 30.6192 34.8916 27.7072 34.8916 24.2531Z" fill="#4285F4"/>
<path d="M17.5457 26.2469C17.3062 25.5409 17.1675 24.7846 17.1675 24.003C17.1675 23.2214 17.3062 22.4651 17.5331 21.7591L13.8647 18.9102C13.0958 20.4481 12.6545 22.1751 12.6545 24.003C12.6545 25.8309 13.0958 27.5579 13.8647 29.0959L17.5457 26.2469Z" fill="#FBBC05"/>
<path d="M24 35.3477C27.0633 35.3477 29.6349 34.3392 31.5132 32.5995L27.9331 29.8262C26.975 30.4943 25.6892 30.9608 24 30.9608C20.9998 30.9608 18.4533 28.9816 17.5457 26.2461L13.8773 29.0951C15.743 32.8012 19.5627 35.3477 24 35.3477Z" fill="#34A853"/>
</svg>
