<svg width="48" height="48" viewBox="0 0 48 48" fill="none" xmlns="http://www.w3.org/2000/svg">
<path d="M0 24C0 10.7452 10.7452 0 24 0C37.2548 0 48 10.7452 48 24C48 37.2548 37.2548 48 24 48C10.7452 48 0 37.2548 0 24Z" fill="#1DA1F2"/>
<path d="M23.6534 19.3203L23.7054 20.1854L22.8383 20.0794C19.6822 19.6734 16.9249 18.2964 14.5839 15.9837L13.4393 14.8361L13.1445 15.6835C12.5202 17.5725 12.9191 19.5675 14.2197 20.9092C14.9133 21.6507 14.7573 21.7566 13.5607 21.3152C13.1445 21.174 12.7804 21.0681 12.7457 21.121C12.6243 21.2446 13.0405 22.8512 13.37 23.4867C13.8208 24.3694 14.7399 25.2345 15.7457 25.7464L16.5955 26.1525L15.5897 26.1701C14.6185 26.1701 14.5839 26.1878 14.6879 26.5585C15.0347 27.7061 16.4047 28.9242 17.9307 29.4538L19.0059 29.8246L18.0695 30.3895C16.6822 31.2016 15.0521 31.6606 13.422 31.6959C12.6416 31.7136 12 31.7842 12 31.8372C12 32.0137 14.1156 33.0023 15.3469 33.3907C19.0406 34.5382 23.4279 34.0439 26.7228 32.0843C29.0639 30.6896 31.4049 27.9179 32.4974 25.2345C33.087 23.8045 33.6767 21.1917 33.6767 19.9382C33.6767 19.1261 33.7287 19.0202 34.6998 18.0492C35.2721 17.4843 35.8096 16.8664 35.9137 16.6898C36.0871 16.3544 36.0698 16.3544 35.1854 16.6545C33.7113 17.1842 33.5032 17.1135 34.2316 16.3191C34.7692 15.7542 35.4108 14.7302 35.4108 14.4301C35.4108 14.3771 35.1507 14.4654 34.8559 14.6243C34.5437 14.8008 33.8501 15.0656 33.3298 15.2245L32.3934 15.5247L31.5437 14.9421C31.0755 14.6243 30.4165 14.2712 30.0697 14.1653C29.1853 13.9181 27.8326 13.9534 27.0349 14.2359C24.8673 15.0303 23.4973 17.0782 23.6534 19.3203Z" fill="white"/>
</svg>
