<svg width="16" height="16" viewBox="0 0 16 16" fill="none" xmlns="http://www.w3.org/2000/svg">
<path fill-rule="evenodd" clip-rule="evenodd" d="M14.7514 8.07263C14.7514 8.55787 14.6987 9.03014 14.5975 9.48618C14.8551 9.99739 15 10.5727 15 11.1821C15 13.2903 13.2665 15 11.1279 15C10.4653 15 9.84301 14.8353 9.29727 14.5464C8.90052 14.6186 8.49224 14.6568 8.07408 14.6568C4.38641 14.6568 1.39675 11.7096 1.39675 8.07263C1.39675 7.61983 1.44367 7.17678 1.53175 6.74996C1.19426 6.18194 1 5.52304 1 4.8187C1 2.70892 2.73354 1 4.87288 1C5.62935 1 6.33561 1.21504 6.93238 1.58587C7.30445 1.52258 7.68556 1.48931 8.07408 1.48931C11.7626 1.48931 14.7514 4.43732 14.7514 8.07263ZM10.1418 12.2338C10.7345 11.9919 11.1905 11.6511 11.4992 11.2194C11.8087 10.7869 11.9667 10.2928 11.9667 9.75071C11.9667 9.29711 11.8754 8.90761 11.6951 8.59033C11.5148 8.27549 11.2621 8.01258 10.9427 7.80728C10.6283 7.60523 10.2447 7.4332 9.79939 7.29363C9.36065 7.15487 8.8643 7.02585 8.32349 6.91225C7.89628 6.81487 7.58514 6.73941 7.39993 6.68829C7.21884 6.6396 7.03775 6.56981 6.86242 6.48299C6.69285 6.3986 6.55868 6.2996 6.46484 6.18437C6.37429 6.07726 6.33067 5.95149 6.33067 5.80218C6.33067 5.55712 6.46649 5.3502 6.74471 5.17087C7.03363 4.98342 7.4238 4.88929 7.90122 4.88929C8.41733 4.88929 8.79186 4.97369 9.01658 5.14247C9.24788 5.31612 9.44955 5.56199 9.61583 5.87359C9.75988 6.11702 9.88993 6.28743 10.0151 6.39697C10.1484 6.51382 10.3427 6.57387 10.5896 6.57387C10.8612 6.57387 11.0925 6.47893 11.2753 6.29067C11.4572 6.10485 11.5494 5.89063 11.5494 5.65531C11.5494 5.41106 11.4786 5.1587 11.3403 4.90471C11.2037 4.65316 10.9847 4.41216 10.6909 4.18495C10.3995 3.96018 10.029 3.77842 9.58866 3.64371C9.15075 3.50901 8.62641 3.44085 8.03046 3.44085C7.28387 3.44085 6.62535 3.54309 6.07138 3.74515C5.50917 3.94882 5.07291 4.24906 4.77493 4.63288C4.47366 5.01913 4.32138 5.46786 4.32138 5.96447C4.32138 6.48623 4.46707 6.9301 4.75353 7.2847C5.03587 7.63282 5.42192 7.91115 5.90099 8.11158C6.36853 8.30876 6.95708 8.4816 7.65099 8.62766C8.16051 8.73315 8.57208 8.83458 8.87582 8.92708C9.16639 9.01797 9.40593 9.1478 9.58866 9.31496C9.76152 9.47563 9.84631 9.68011 9.84631 9.93897C9.84631 10.2684 9.68497 10.5378 9.3516 10.761C9.01164 10.9898 8.55891 11.1066 8.00659 11.1066C7.60571 11.1066 7.27893 11.0482 7.03692 10.9362C6.79657 10.8235 6.60807 10.6798 6.47636 10.5078C6.34055 10.3317 6.21214 10.1061 6.0936 9.83835C5.98742 9.5941 5.85571 9.40341 5.70179 9.27439C5.54127 9.1405 5.3429 9.07315 5.11406 9.07315C4.8342 9.07315 4.5996 9.15835 4.41686 9.32875C4.23248 9.49997 4.13864 9.70933 4.13864 9.94952C4.13864 10.3366 4.28187 10.7366 4.56585 11.1391C4.84654 11.54 5.21613 11.8629 5.66475 12.1015C6.2928 12.4301 7.09701 12.5965 8.05597 12.5965C8.85524 12.5965 9.55656 12.4739 10.1418 12.2338Z" fill="#2E2E2E"/>
</svg>
