<svg width="16" height="16" viewBox="0 0 16 16" fill="none" xmlns="http://www.w3.org/2000/svg">
<path d="M1.18124 7.65153C2.40888 6.97114 3.77925 6.40325 5.05966 5.83247C7.26245 4.89758 9.474 3.9789 11.7079 3.12361C12.1425 2.97788 12.9234 2.83539 13 3.48346C12.9581 4.40083 12.7856 5.31282 12.6673 6.22482C12.367 8.23038 12.0199 10.2291 11.6814 12.228C11.5648 12.8939 10.7358 13.2386 10.2054 12.8125C8.93071 11.9461 7.64619 11.0881 6.38775 10.2017C5.97552 9.78022 6.35779 9.17495 6.72594 8.87397C7.77584 7.83289 8.88927 6.94836 9.8843 5.85348C10.1527 5.20132 9.35965 5.75093 9.09806 5.91935C7.66074 6.91597 6.25861 7.97344 4.74323 8.84933C3.96917 9.27807 3.067 8.91168 2.29329 8.67245C1.59958 8.38344 0.583018 8.09227 1.18117 7.65162L1.18124 7.65153Z" fill="white"/>
</svg>
