<svg width="16" height="16" viewBox="0 0 16 16" fill="none" xmlns="http://www.w3.org/2000/svg">
<path d="M7.82668 5.66016L7.8527 6.09268L7.41916 6.03972C5.8411 5.8367 4.46247 5.14818 3.29193 3.99183L2.71966 3.41807L2.57226 3.84177C2.26012 4.78627 2.45955 5.78374 3.10984 6.4546C3.45667 6.82533 3.37864 6.8783 2.78036 6.65762C2.57226 6.587 2.39018 6.53404 2.37284 6.56052C2.31214 6.62231 2.52024 7.42558 2.68498 7.74335C2.91042 8.18471 3.36996 8.61724 3.87286 8.87322L4.29773 9.07625L3.79483 9.08507C3.30927 9.08507 3.29193 9.0939 3.34395 9.27927C3.51737 9.85303 4.20235 10.4621 4.96537 10.7269L5.50295 10.9123L5.03473 11.1948C4.34108 11.6008 3.52604 11.8303 2.71099 11.848C2.32081 11.8568 2 11.8921 2 11.9186C2 12.0068 3.05782 12.5012 3.67344 12.6954C5.52029 13.2691 7.71397 13.022 9.36139 12.0422C10.5319 11.3448 11.7025 9.95896 12.2487 8.61724C12.5435 7.90224 12.8383 6.59583 12.8383 5.96911C12.8383 5.56306 12.8643 5.5101 13.3499 5.02461C13.636 4.74214 13.9048 4.43319 13.9568 4.34492C14.0435 4.1772 14.0349 4.1772 13.5927 4.32726C12.8557 4.59208 12.7516 4.55677 13.1158 4.15955C13.3846 3.87708 13.7054 3.36511 13.7054 3.21505C13.7054 3.18857 13.5753 3.2327 13.4279 3.31215C13.2719 3.40042 12.925 3.53282 12.6649 3.61227L12.1967 3.76233L11.7718 3.47103C11.5377 3.31215 11.2082 3.1356 11.0348 3.08264C10.5926 2.95906 9.91631 2.97672 9.51746 3.11795C8.43363 3.51517 7.74865 4.53911 7.82668 5.66016Z" fill="#2E2E2E"/>
</svg>
