<svg width="16" height="16" viewBox="0 0 16 16" fill="none" xmlns="http://www.w3.org/2000/svg">
<path fill-rule="evenodd" clip-rule="evenodd" d="M14.3458 5.1005C14.6256 5.81554 14.7598 6.45687 14.7892 7.23876C14.7939 7.39323 14.7917 7.67622 14.7815 7.86792C14.7603 8.2354 14.7399 8.3084 14.6321 8.40564C14.4588 8.56519 14.1209 8.52716 13.9928 8.33488C13.9259 8.23172 13.9165 8.15616 13.9294 7.7268C13.9666 6.45678 13.7048 5.46237 13.0741 4.46803C12.3204 3.27508 11.193 2.47145 9.72702 2.07829C9.35316 1.97822 9.03811 1.91723 8.54813 1.85251C8.22895 1.81153 8.15905 1.7942 8.08027 1.74663C7.8423 1.5971 7.83913 1.21845 8.07636 1.06665C8.19878 0.986509 8.28905 0.982928 8.68808 1.03306C9.85815 1.17651 10.9022 1.51761 11.7601 2.03305C12.3751 2.40299 12.7628 2.73533 13.262 3.31739C13.79 3.93817 14.0695 4.39715 14.3458 5.1005ZM14.9331 12.2444C14.9056 12.1654 14.8412 12.0436 14.7953 11.9736C14.5059 11.5448 12.9508 10.3509 12.1744 9.96038C11.7311 9.73697 11.4026 9.6625 11.1591 9.73243C10.8973 9.80469 10.7594 9.92427 10.3207 10.4592C10.1438 10.6736 9.96237 10.8745 9.91412 10.906C9.79467 10.9873 9.56038 11.0528 9.395 11.0528C9.01139 11.0505 8.31539 10.8068 7.78018 10.4863C7.36442 10.238 6.83154 9.79341 6.42265 9.35329C5.94025 8.83645 5.61181 8.38055 5.35222 7.86596C5.01687 7.20469 4.93188 6.80068 5.07198 6.50501C5.10645 6.43054 5.15239 6.35157 5.17304 6.3267C5.19373 6.30417 5.40966 6.13036 5.64852 5.94078C6.11714 5.57517 6.19293 5.49166 6.28022 5.24114C6.39047 4.92289 6.36063 4.5979 6.19064 4.27065C6.0597 4.02238 5.71745 3.48072 5.46938 3.1309C5.1409 2.6705 4.32316 1.68647 4.16005 1.55328C3.86603 1.31858 3.48936 1.27793 3.07356 1.43595C2.63486 1.60296 1.8125 2.25296 1.46105 2.70661C1.14406 3.11736 1.02236 3.40849 1.00396 3.79218C0.987892 4.10813 1.01545 4.23904 1.18543 4.64305C2.51541 7.81178 4.50001 10.3418 7.22661 12.3505C8.65075 13.4 10.1277 14.1989 11.6599 14.7451C12.5534 15.0633 12.9416 15.0791 13.3987 14.8174C13.5916 14.7045 14.0694 14.2238 14.3359 13.874C14.7769 13.2916 14.94 13.0231 14.9859 12.8087C15.0181 12.662 14.9928 12.4069 14.9331 12.2444ZM11.5158 3.64449C12.5021 4.42694 13.0532 5.53903 13.1351 6.92129C13.1696 7.46572 13.1238 7.64304 12.928 7.74404C12.7514 7.83763 12.5512 7.80682 12.4139 7.66592C12.3229 7.57429 12.288 7.44896 12.2893 7.22702C12.2933 6.6134 12.1492 5.92815 11.9149 5.45266C11.6437 4.89924 11.2246 4.42829 10.6973 4.08397C10.2354 3.78155 9.62416 3.57728 9.0315 3.52641C8.64707 3.49342 8.5098 3.42954 8.43601 3.24874C8.39029 3.14058 8.40237 2.95361 8.45597 2.86986C8.50664 2.79264 8.62034 2.70724 8.70073 2.68467C8.78592 2.66029 9.28249 2.70291 9.55219 2.75549C10.2885 2.90252 10.9602 3.20484 11.5158 3.64449ZM11.0613 5.29337C11.3124 5.60716 11.4537 5.96141 11.5103 6.41259C11.5227 6.50651 11.5278 6.68142 11.5243 6.79893C11.5189 6.98874 11.5111 7.02432 11.46 7.10606C11.3208 7.32294 10.9925 7.35819 10.808 7.17696C10.7085 7.07781 10.6839 6.99187 10.6743 6.71234C10.6536 6.117 10.4604 5.74927 10.0455 5.51427C9.85009 5.40464 9.63524 5.3318 9.32434 5.27568C9.09086 5.23073 9.00692 5.18953 8.93416 5.07454C8.83069 4.91611 8.85713 4.67145 8.99252 4.54941C9.13788 4.41915 9.30025 4.40817 9.70215 4.50384C10.3188 4.64736 10.7354 4.88932 11.0613 5.29337Z" fill="#2E2E2E"/>
</svg>
