<svg width="16" height="16" viewBox="0 0 16 16" fill="none" xmlns="http://www.w3.org/2000/svg">
<path d="M8.63754 11.9666C8.63754 11.9666 8.87216 11.9384 8.99233 11.7992C9.10233 11.6716 9.09852 11.4309 9.09852 11.4309C9.09852 11.4309 9.08389 10.3068 9.56776 10.1408C10.0446 9.97758 10.6569 11.2279 11.3068 11.7087C11.7976 12.0722 12.1702 11.9926 12.1702 11.9926L13.9067 11.9666C13.9067 11.9666 14.8146 11.9062 14.3842 11.136C14.3486 11.0729 14.133 10.566 13.0934 9.52491C12.0043 8.43509 12.1505 8.61135 13.4616 6.72594C14.2602 5.57781 14.5794 4.87687 14.4796 4.57715C14.3848 4.29046 13.7973 4.36659 13.7973 4.36659L11.8428 4.37962C11.8428 4.37962 11.6978 4.35836 11.5903 4.42763C11.4854 4.49553 11.4174 4.65397 11.4174 4.65397C11.4174 4.65397 11.1084 5.54215 10.6957 6.29796C9.82527 7.89189 9.47747 7.97625 9.33505 7.87749C9.00378 7.64636 9.08644 6.95021 9.08644 6.45571C9.08644 4.91048 9.30389 4.26646 8.66361 4.09979C8.45124 4.04424 8.29483 4.00789 7.75119 4.00172C7.05369 3.99417 6.46363 4.00446 6.12919 4.18072C5.90665 4.29801 5.73497 4.56 5.83989 4.57509C5.96896 4.59361 6.26144 4.66014 6.41658 4.88784C6.61687 5.18207 6.60988 5.84187 6.60988 5.84187C6.60988 5.84187 6.72496 7.66076 6.34092 7.8864C6.07769 8.04141 5.71653 7.72523 4.94019 6.27876C4.54279 5.53803 4.24268 4.71912 4.24268 4.71912C4.24268 4.71912 4.18482 4.56618 4.08118 4.48387C3.95592 4.38442 3.78107 4.35356 3.78107 4.35356L1.92381 4.36659C1.92381 4.36659 1.64468 4.37482 1.54231 4.50582C1.45138 4.62173 1.53531 4.86247 1.53531 4.86247C1.53531 4.86247 2.98946 8.53248 4.63626 10.3822C6.14636 12.0777 7.86055 11.9666 7.86055 11.9666H8.63754Z" fill="white"/>
</svg>
