<svg width="16" height="16" viewBox="0 0 16 16" fill="none" xmlns="http://www.w3.org/2000/svg">
<path fill-rule="evenodd" clip-rule="evenodd" d="M15 7.9424C14.9985 11.7665 11.8726 14.8781 8.02931 14.8797H8.02642C6.85978 14.8793 5.71344 14.588 4.69529 14.0353L1 15L1.98892 11.4051C1.37891 10.353 1.05792 9.15961 1.05844 7.93692C1.05997 4.11193 4.18704 1 8.02924 1C9.89399 1.0008 11.6442 1.72327 12.9603 3.03457C14.2763 4.34581 15.0007 6.08877 15 7.9424ZM2.67366 13.3519L4.8665 12.7794L5.07806 12.9044C5.96762 13.4297 6.98731 13.7077 8.02696 13.7081H8.02931C11.2227 13.7081 13.8218 11.1214 13.823 7.942C13.8236 6.40128 13.2216 4.95261 12.1277 3.8627C11.0338 2.77279 9.57911 2.17227 8.03159 2.17174C4.83575 2.17174 2.23664 4.75818 2.23537 7.93733C2.23493 9.02685 2.54124 10.0879 3.12121 11.0059L3.25896 11.2241L2.67366 13.3519ZM11.3026 9.436C11.424 9.49443 11.5061 9.53389 11.5411 9.59208C11.5846 9.66435 11.5846 10.0114 11.4396 10.4164C11.2944 10.8213 10.5985 11.1908 10.2639 11.2406C9.96381 11.2852 9.58407 11.3039 9.16684 11.1719C8.91386 11.092 8.58946 10.9854 8.1739 10.8067C6.54105 10.1051 5.43757 8.53005 5.22902 8.23238C5.21441 8.21152 5.20419 8.19694 5.19849 8.18936L5.19708 8.18749C5.10491 8.06509 4.48729 7.24498 4.48729 6.39621C4.48729 5.59776 4.88139 5.17924 5.06279 4.9866C5.07522 4.97341 5.08665 4.96127 5.09689 4.95014C5.25654 4.7766 5.44525 4.73321 5.56135 4.73321C5.67745 4.73321 5.7937 4.73428 5.89518 4.73935C5.9077 4.73998 5.92072 4.7399 5.93419 4.73982C6.03569 4.73923 6.16223 4.73849 6.28706 5.03691C6.33509 5.15176 6.40536 5.32203 6.47948 5.50162C6.62935 5.86474 6.79494 6.26593 6.82407 6.32399C6.86763 6.41076 6.89665 6.51195 6.83859 6.62769C6.82988 6.64504 6.82182 6.66141 6.81412 6.67706C6.77051 6.76566 6.73843 6.83083 6.66442 6.91683C6.63532 6.95065 6.60524 6.98711 6.57516 7.02356C6.51524 7.09619 6.45533 7.1688 6.40315 7.22053C6.31596 7.30697 6.22519 7.40075 6.32679 7.57429C6.42839 7.74783 6.77795 8.31544 7.29574 8.7751C7.85234 9.26919 8.3361 9.47802 8.5813 9.58387C8.62919 9.60454 8.66797 9.62128 8.69643 9.63546C8.87054 9.72225 8.97215 9.70773 9.07375 9.59208C9.17536 9.47639 9.50916 9.0859 9.62525 8.9124C9.74135 8.73892 9.85751 8.76782 10.0171 8.82564C10.1768 8.88354 11.0331 9.30284 11.2073 9.38959C11.2413 9.40654 11.2731 9.42183 11.3026 9.436Z" fill="#2E2E2E"/>
</svg>
